<svg xmlns="http://www.w3.org/2000/svg" id="outline-supervisor_account-24px" width="24" height="24" viewBox="0 0 24 24">
    <defs>
        <style>
            .cls-1{fill:none}.cls-2{fill:#014a62}
        </style>
    </defs>
    <path id="Path_465" d="M0 0h24v24H0z" class="cls-1" data-name="Path 465"/>
    <g id="outline-group_add-24px">
        <path id="Path_734" d="M0 0h24v24H0z" class="cls-1" data-name="Path 734"/>
        <path id="Path_735" d="M5 15v-3h3v-2H5V7H3v3H0v2h3v3zm7-1.25c-2.34 0-7 1.17-7 3.5V19h14v-1.75c0-2.33-4.66-3.5-7-3.5zM7.34 17A9.642 9.642 0 0 1 12 15.75 9.642 9.642 0 0 1 16.66 17zM12 12a3.5 3.5 0 1 0-3.5-3.5A3.5 3.5 0 0 0 12 12zm0-5a1.5 1.5 0 1 1-1.5 1.5A1.5 1.5 0 0 1 12 7zm5 5a3.5 3.5 0 0 0 0-7 3.353 3.353 0 0 0-.71.07 5.418 5.418 0 0 1-.02 6.85A3.549 3.549 0 0 0 17 12zm2.32 2.02A4.086 4.086 0 0 1 21 17.25V19h3v-1.75c0-1.69-2.44-2.76-4.68-3.23z" class="cls-2" data-name="Path 735"/>
    </g>
</svg>
