<svg xmlns="http://www.w3.org/2000/svg" id="outline-record_voice_over-24px" width="42.102" height="42.102" viewBox="0 0 42.102 42.102">
    <defs>
        <style>
            .cls-1{fill:none}.cls-2{fill:#fff}
        </style>
    </defs>
    <path id="Path_586" d="M0 0h42.1v42.1H0z" class="cls-1" data-name="Path 586"/>
    <path id="Path_587" d="M15.034 21.3a7.017 7.017 0 1 0-7.017-7.02 7.015 7.015 0 0 0 7.017 7.02zm0-10.525a3.508 3.508 0 1 1-3.508 3.508 3.519 3.519 0 0 1 3.508-3.512zm0 14.034C10.35 24.805 1 27.156 1 31.822v3.508h28.068v-3.508c0-4.666-9.35-7.017-14.034-7.017zM4.508 31.822c.386-1.263 5.807-3.508 10.525-3.508 4.736 0 10.175 2.263 10.525 3.508zM25.7 10.859a5.819 5.819 0 0 1 0 6.824l2.947 2.965c3.544-3.544 3.544-8.894 0-12.753L25.7 10.859zM34.453 2l-2.859 2.859a14 14 0 0 1 0 18.84l2.859 2.859c6.842-6.823 6.859-17.458 0-24.558z" class="cls-2" data-name="Path 587" transform="translate(.754 1.508)"/>
</svg>
