<svg xmlns="http://www.w3.org/2000/svg" id="outline-brightness_5-24px" width="24" height="24" viewBox="0 0 24 24">
    <defs>
        <style>
            .cls-1{fill:none}.cls-2{fill:#014a62}
        </style>
    </defs>
    <path id="Path_471" d="M0 0h24v24H0z" class="cls-1" data-name="Path 471"/>
    <path id="Path_472" d="M20 8.69V4h-4.69L12 .69 8.69 4H4v4.69L.69 12 4 15.31V20h4.69L12 23.31 15.31 20H20v-4.69L23.31 12zm-2 5.79V18h-3.52L12 20.48 9.52 18H6v-3.52L3.52 12 6 9.52V6h3.52L12 3.52 14.48 6H18v3.52L20.48 12zM12 6.5a5.5 5.5 0 1 0 5.5 5.5A5.51 5.51 0 0 0 12 6.5zm0 9a3.5 3.5 0 1 1 3.5-3.5 3.5 3.5 0 0 1-3.5 3.5z" class="cls-2" data-name="Path 472"/>
</svg>
